<svg width="37" height="33" viewBox="0 0 37 33" fill="none" xmlns="http://www.w3.org/2000/svg">
<path d="M29.3271 23.3434C28.6051 22.7265 27.9023 22.0919 27.2197 21.4404C26.6462 20.9206 26.3008 20.5425 26.3008 20.5425L21.9842 18.7041C23.7124 16.956 24.6662 14.7056 24.6667 12.375C24.6667 7.06887 19.8258 2.75 13.875 2.75C7.92416 2.75 3.08333 7.06887 3.08333 12.375C3.08333 17.6811 7.92416 22 13.875 22C16.593 22 19.0704 21.0925 20.9713 19.6089L23.0325 23.4589C23.0325 23.4589 23.4565 23.7669 24.0392 24.2784C24.6358 24.7775 25.4205 25.4526 26.1729 26.158L28.2665 28.072L29.1976 28.9602L32.4675 26.0439L31.4716 25.2134C30.8873 24.7019 30.1072 24.0226 29.3271 23.3434ZM13.875 19.25C9.62462 19.25 6.16666 16.1659 6.16666 12.375C6.16666 8.58412 9.62462 5.5 13.875 5.5C18.1254 5.5 21.5833 8.58412 21.5833 12.375C21.5833 16.1659 18.1254 19.25 13.875 19.25Z" fill="white"/>
</svg>
