<svg width="37" height="33" viewBox="0 0 37 33" fill="none" xmlns="http://www.w3.org/2000/svg">
<path d="M13.875 29.3333C15.2941 29.3333 16.4444 28.3073 16.4444 27.0417C16.4444 25.776 15.2941 24.75 13.875 24.75C12.4559 24.75 11.3056 25.776 11.3056 27.0417C11.3056 28.3073 12.4559 29.3333 13.875 29.3333Z" fill="white"/>
<path d="M27.2361 29.3333C28.6552 29.3333 29.8056 28.3073 29.8056 27.0417C29.8056 25.776 28.6552 24.75 27.2361 24.75C25.817 24.75 24.6667 25.776 24.6667 27.0417C24.6667 28.3073 25.817 29.3333 27.2361 29.3333Z" fill="white"/>
<path d="M34.0194 5.8575C33.9237 5.74657 33.8007 5.65667 33.66 5.5947C33.5192 5.53273 33.3645 5.50033 33.2075 5.5H9.46583L9.00333 4.18917C8.95253 4.04842 8.8643 3.92072 8.74618 3.81697C8.62806 3.71322 8.48356 3.63649 8.325 3.59333L4.11111 2.43833C3.98154 2.40282 3.84539 2.39042 3.71045 2.40183C3.5755 2.41325 3.4444 2.44826 3.32463 2.50486C3.08273 2.61918 2.90166 2.81452 2.82125 3.04792C2.74083 3.28131 2.76767 3.53363 2.89584 3.74937C3.02402 3.96512 3.24304 4.12661 3.50472 4.19833L7.19444 5.20666L11.9017 18.4708L10.2264 19.6992L10.0928 19.8183C9.67847 20.2462 9.44375 20.7892 9.42875 21.3543C9.41375 21.9195 9.61941 22.4718 10.0106 22.9167C10.2907 23.2205 10.6467 23.4617 11.05 23.6208C11.4533 23.78 11.8928 23.8528 12.3333 23.8333H29.4869C29.7595 23.8333 30.0209 23.7368 30.2137 23.5648C30.4064 23.3929 30.5147 23.1598 30.5147 22.9167C30.5147 22.6735 30.4064 22.4404 30.2137 22.2685C30.0209 22.0966 29.7595 22 29.4869 22H12.1689C12.0505 21.9964 11.9352 21.9656 11.8341 21.9107C11.733 21.8557 11.6494 21.7784 11.5916 21.6863C11.5337 21.5941 11.5035 21.4902 11.5038 21.3846C11.5041 21.279 11.5349 21.1752 11.5933 21.0833L14.0703 19.25H29.9289C30.1637 19.2561 30.3937 19.1903 30.5807 19.0635C30.7677 18.9368 30.9004 18.7567 30.9567 18.5533L34.2455 6.63666C34.2768 6.50001 34.2727 6.35879 34.2335 6.22377C34.1943 6.08874 34.1211 5.96347 34.0194 5.8575Z" fill="white"/>
</svg>
