<svg width="144" height="15" viewBox="0 0 144 15" fill="none" xmlns="http://www.w3.org/2000/svg">
<path d="M12.7969 5.26172H12.4102C12.0898 3.84766 11.5117 2.75 10.6758 1.96875C9.83984 1.1875 8.82422 0.796875 7.62891 0.796875C6.32422 0.796875 5.28516 1.34766 4.51172 2.44922C3.74609 3.55078 3.36328 5.03125 3.36328 6.89062C3.36328 8.96094 3.8125 10.5625 4.71094 11.6953C5.60938 12.8281 6.84766 13.3945 8.42578 13.3945C9.27734 13.3945 10.0586 13.2188 10.7695 12.8672C11.4805 12.5156 12.2031 11.9492 12.9375 11.168V11.9062C11.5469 13.8125 9.65234 14.7656 7.25391 14.7656C5.10547 14.7656 3.35938 14.1016 2.01562 12.7734C0.671875 11.4375 0 9.70703 0 7.58203C0 5.42578 0.722656 3.625 2.16797 2.17969C3.62109 0.726562 5.42578 0 7.58203 0C8.46484 0 9.46094 0.195313 10.5703 0.585938C11.0469 0.757813 11.3711 0.84375 11.543 0.84375C11.8867 0.84375 12.1758 0.601562 12.4102 0.117188H12.7969V5.26172ZM29.9883 7.39453C29.9883 9.54297 29.2695 11.3086 27.832 12.6914C26.3945 14.0742 24.5586 14.7656 22.3242 14.7656C20.0977 14.7656 18.2695 14.0742 16.8398 12.6914C15.4102 11.3086 14.6953 9.54297 14.6953 7.39453C14.6953 5.24609 15.4102 3.47656 16.8398 2.08594C18.2773 0.695312 20.1055 0 22.3242 0C24.5586 0 26.3945 0.695312 27.832 2.08594C29.2695 3.47656 29.9883 5.24609 29.9883 7.39453ZM26.625 7.48828C26.625 5.30859 26.2578 3.64844 25.5234 2.50781C24.7969 1.36719 23.7305 0.796875 22.3242 0.796875C20.9336 0.796875 19.875 1.36719 19.1484 2.50781C18.4219 3.64844 18.0586 5.31641 18.0586 7.51172C18.0586 9.55078 18.4258 11.1367 19.1602 12.2695C19.8945 13.4023 20.9492 13.9688 22.3242 13.9688C23.6758 13.9688 24.7305 13.4062 25.4883 12.2812C26.2461 11.1562 26.625 9.55859 26.625 7.48828ZM41.1797 5.10938H41.5898V9.45703H41.1797C41.0703 8.83203 40.8477 8.38672 40.5117 8.12109C40.1758 7.84766 39.6719 7.71094 39 7.71094H36.8203V12.0469C36.8203 12.6719 36.9453 13.125 37.1953 13.4062C37.4453 13.6875 37.8945 13.8828 38.543 13.9922V14.4023H31.9453V13.9922C32.6406 13.8828 33.1094 13.6797 33.3516 13.3828C33.5938 13.0781 33.7148 12.5234 33.7148 11.7188V2.67188C33.7148 2.10156 33.5977 1.69141 33.3633 1.44141C33.1367 1.19141 32.6641 0.96875 31.9453 0.773438V0.363281H41.9062L42.1875 3H41.7891C41.5391 2.34375 41.2188 1.875 40.8281 1.59375C40.4375 1.30469 39.9102 1.16016 39.2461 1.16016H36.8203V6.91406H39C39.6328 6.91406 40.1055 6.78516 40.418 6.52734C40.7383 6.26953 40.9922 5.79688 41.1797 5.10938ZM52.6875 5.10938H53.0977V9.45703H52.6875C52.5781 8.83203 52.3555 8.38672 52.0195 8.12109C51.6836 7.84766 51.1797 7.71094 50.5078 7.71094H48.3281V12.0469C48.3281 12.6719 48.4531 13.125 48.7031 13.4062C48.9531 13.6875 49.4023 13.8828 50.0508 13.9922V14.4023H43.4531V13.9922C44.1484 13.8828 44.6172 13.6797 44.8594 13.3828C45.1016 13.0781 45.2227 12.5234 45.2227 11.7188V2.67188C45.2227 2.10156 45.1055 1.69141 44.8711 1.44141C44.6445 1.19141 44.1719 0.96875 43.4531 0.773438V0.363281H53.4141L53.6953 3H53.2969C53.0469 2.34375 52.7266 1.875 52.3359 1.59375C51.9453 1.30469 51.418 1.16016 50.7539 1.16016H48.3281V6.91406H50.5078C51.1406 6.91406 51.6133 6.78516 51.9258 6.52734C52.2461 6.26953 52.5 5.79688 52.6875 5.10938ZM64.0547 5.21484H64.5117V9.55078H64.0547C63.8906 8.35547 63.2422 7.75781 62.1094 7.75781H59.6367V11.8828C59.6367 12.5156 59.7812 12.9609 60.0703 13.2188C60.3594 13.4766 60.8555 13.6055 61.5586 13.6055H62.3789C63.7539 13.6055 64.7383 12.7344 65.332 10.9922H65.7305L65.4727 14.4023H54.7734V13.9922C55.4844 13.8438 55.957 13.6328 56.1914 13.3594C56.4258 13.0781 56.543 12.5391 56.543 11.7422V2.71875C56.543 2.0625 56.4219 1.60937 56.1797 1.35938C55.9375 1.10156 55.4688 0.90625 54.7734 0.773438V0.363281H65.3086V3.48047H64.8984C64.6641 2.56641 64.3711 1.95313 64.0195 1.64062C63.6758 1.32031 63.1211 1.16016 62.3555 1.16016H59.6367V6.96094H62.1094C62.6719 6.96094 63.1016 6.82812 63.3984 6.5625C63.6953 6.29688 63.9141 5.84766 64.0547 5.21484ZM76.2891 5.21484H76.7461V9.55078H76.2891C76.125 8.35547 75.4766 7.75781 74.3438 7.75781H71.8711V11.8828C71.8711 12.5156 72.0156 12.9609 72.3047 13.2188C72.5938 13.4766 73.0898 13.6055 73.793 13.6055H74.6133C75.9883 13.6055 76.9727 12.7344 77.5664 10.9922H77.9648L77.707 14.4023H67.0078V13.9922C67.7188 13.8438 68.1914 13.6328 68.4258 13.3594C68.6602 13.0781 68.7773 12.5391 68.7773 11.7422V2.71875C68.7773 2.0625 68.6562 1.60937 68.4141 1.35938C68.1719 1.10156 67.7031 0.90625 67.0078 0.773438V0.363281H77.543V3.48047H77.1328C76.8984 2.56641 76.6055 1.95313 76.2539 1.64062C75.9102 1.32031 75.3555 1.16016 74.5898 1.16016H71.8711V6.96094H74.3438C74.9062 6.96094 75.3359 6.82812 75.6328 6.5625C75.9297 6.29688 76.1484 5.84766 76.2891 5.21484ZM93.0469 0V3.70312H92.6484C92.375 2.88281 91.9023 2.19531 91.2305 1.64062C90.5664 1.07812 89.8789 0.796875 89.168 0.796875C88.5273 0.796875 87.9805 0.980469 87.5273 1.34766C87.082 1.71484 86.8594 2.16406 86.8594 2.69531C86.8594 2.95312 86.918 3.21094 87.0352 3.46875C87.1523 3.71875 87.3203 3.95312 87.5391 4.17188C87.7656 4.39062 88.4844 4.87891 89.6953 5.63672C90.9297 6.39453 91.7266 6.92188 92.0859 7.21875C92.4453 7.51562 92.7891 7.89453 93.1172 8.35547C93.6172 9.06641 93.8672 9.84375 93.8672 10.6875C93.8672 11.9375 93.4258 12.9297 92.543 13.6641C91.668 14.3984 90.6055 14.7656 89.3555 14.7656C88.6836 14.7656 87.8828 14.6445 86.9531 14.4023C86.4609 14.2773 86.1172 14.2148 85.9219 14.2148C85.5938 14.2148 85.3555 14.3672 85.207 14.6719H84.7969V10.4414H85.207C85.418 11.5352 85.8555 12.3984 86.5195 13.0312C87.1836 13.6562 88 13.9688 88.9688 13.9688C89.7188 13.9688 90.3359 13.7812 90.8203 13.4062C91.3125 13.0312 91.5586 12.5547 91.5586 11.9766C91.5586 11.5078 91.4023 11.0664 91.0898 10.6523C90.7773 10.2305 89.9414 9.61328 88.582 8.80078C87.332 8.05078 86.5039 7.47266 86.0977 7.06641C85.6914 6.66016 85.3828 6.20703 85.1719 5.70703C84.9688 5.19922 84.8672 4.66406 84.8672 4.10156C84.8672 2.89844 85.2773 1.91406 86.0977 1.14844C86.9258 0.382813 87.9883 0 89.2852 0C89.6836 0 90.1641 0.0664063 90.7266 0.199219C91.2891 0.324219 91.6875 0.386719 91.9219 0.386719C92.1484 0.386719 92.3906 0.257812 92.6484 0H93.0469ZM107.496 11.7188V7.58203H100.758V12.0234C100.758 12.6641 100.867 13.1094 101.086 13.3594C101.305 13.6016 101.77 13.8125 102.48 13.9922V14.4023H95.8828V13.9922C96.3828 13.8672 96.7539 13.7305 96.9961 13.582C97.2461 13.4336 97.418 13.2461 97.5117 13.0195C97.6133 12.7852 97.6641 12.3516 97.6641 11.7188V2.74219C97.6641 2.10938 97.5469 1.66797 97.3125 1.41797C97.0859 1.16016 96.6094 0.945313 95.8828 0.773438V0.363281H102.48V0.773438C101.801 0.929687 101.344 1.14062 101.109 1.40625C100.875 1.66406 100.758 2.07422 100.758 2.63672V6.57422H107.496V2.74219C107.496 2.10938 107.383 1.66797 107.156 1.41797C106.93 1.16016 106.461 0.945313 105.75 0.773438V0.363281H112.371V0.773438C111.621 0.96875 111.137 1.19141 110.918 1.44141C110.699 1.68359 110.59 2.21875 110.59 3.04688V12.0234C110.59 12.6484 110.703 13.0898 110.93 13.3477C111.156 13.5977 111.637 13.8125 112.371 13.9922V14.4023H105.75V13.9922C106.43 13.8359 106.891 13.625 107.133 13.3594C107.375 13.0859 107.496 12.5391 107.496 11.7188ZM129.668 7.39453C129.668 9.54297 128.949 11.3086 127.512 12.6914C126.074 14.0742 124.238 14.7656 122.004 14.7656C119.777 14.7656 117.949 14.0742 116.52 12.6914C115.09 11.3086 114.375 9.54297 114.375 7.39453C114.375 5.24609 115.09 3.47656 116.52 2.08594C117.957 0.695312 119.785 0 122.004 0C124.238 0 126.074 0.695312 127.512 2.08594C128.949 3.47656 129.668 5.24609 129.668 7.39453ZM126.305 7.48828C126.305 5.30859 125.938 3.64844 125.203 2.50781C124.477 1.36719 123.41 0.796875 122.004 0.796875C120.613 0.796875 119.555 1.36719 118.828 2.50781C118.102 3.64844 117.738 5.31641 117.738 7.51172C117.738 9.55078 118.105 11.1367 118.84 12.2695C119.574 13.4023 120.629 13.9688 122.004 13.9688C123.355 13.9688 124.41 13.4062 125.168 12.2812C125.926 11.1562 126.305 9.55859 126.305 7.48828ZM131.379 0.363281H138.586C140.07 0.363281 141.238 0.707031 142.09 1.39453C142.949 2.08203 143.379 2.97656 143.379 4.07812C143.379 5.26562 142.902 6.23828 141.949 6.99609C141.004 7.75391 139.699 8.13281 138.035 8.13281C137.457 8.13281 136.863 8.09375 136.254 8.01562V12.0234C136.254 12.6562 136.379 13.1133 136.629 13.3945C136.887 13.6758 137.348 13.875 138.012 13.9922V14.4023H131.379V13.9922C132.09 13.8516 132.562 13.6406 132.797 13.3594C133.039 13.0703 133.16 12.5703 133.16 11.8594V2.69531C133.16 2.05469 133.047 1.61328 132.82 1.37109C132.594 1.12891 132.113 0.929687 131.379 0.773438V0.363281ZM137.438 1.16016H136.254V7.18359C136.613 7.29297 136.957 7.34766 137.285 7.34766C138.145 7.34766 138.816 7.07422 139.301 6.52734C139.785 5.97266 140.027 5.19922 140.027 4.20703C140.027 3.30078 139.789 2.56641 139.312 2.00391C138.836 1.44141 138.211 1.16016 137.438 1.16016Z" fill="white"/>
</svg>
