<svg width="38" height="34" viewBox="0 0 38 34" fill="none" xmlns="http://www.w3.org/2000/svg">
<path d="M32.9967 6.53083C32.188 5.80692 31.2278 5.23267 30.171 4.84087C29.1142 4.44907 27.9815 4.24741 26.8375 4.24741C25.6936 4.24741 24.5609 4.44907 23.504 4.84087C22.4472 5.23267 21.4871 5.80692 20.6784 6.53083L19 8.0325L17.3217 6.53083C15.6882 5.06927 13.4727 4.24817 11.1625 4.24817C8.85239 4.24817 6.63687 5.06927 5.00336 6.53083C3.36985 7.9924 2.45215 9.9747 2.45215 12.0417C2.45215 14.1086 3.36985 16.0909 5.00336 17.5525L19 30.0758L32.9967 17.5525C33.8058 16.8289 34.4476 15.9698 34.8855 15.0243C35.3234 14.0787 35.5488 13.0652 35.5488 12.0417C35.5488 11.0181 35.3234 10.0046 34.8855 9.05908C34.4476 8.11351 33.8058 7.2544 32.9967 6.53083Z" stroke="#D9D9D9" stroke-width="4" stroke-linecap="round" stroke-linejoin="round"/>
</svg>
