<svg width="52" height="57" viewBox="0 0 52 57" fill="none" xmlns="http://www.w3.org/2000/svg">
<path d="M29.6009 25.5312C29.3771 20.5586 29.0787 17.8867 26.0944 14.6211C22.2896 10.3906 20.872 6.30859 24.0055 0C24.8261 4.23047 25.1246 8.01562 28.1088 10.3164C31.093 12.6172 33.555 18.8516 29.6009 25.5312ZM24.0055 25.5312C23.8563 22.8594 23.7071 21.5234 22.0657 19.668C20.0514 17.4414 19.2307 15.2891 20.9467 11.875C21.3943 14.1758 21.4689 16.1797 23.1102 17.3672C24.7515 18.5547 26.169 21.9688 24.0055 25.5312ZM37.5091 48.9844H51.0873C51.9079 48.9844 52.2064 49.5781 51.6841 50.2461C51.6841 50.2461 46.3871 57 39.0758 57H12.8893L0.280934 50.2461C-0.241304 49.5781 -0.0174879 48.9844 0.803172 48.9844H14.2322C12.367 48.0195 9.60662 43.7891 9.60662 38.5195V27.3867H42.2838V28.2773C43.3283 27.3867 44.5966 26.9414 45.9395 26.9414C47.8046 26.9414 51.3111 28.8711 51.3111 32.2109C51.3111 37.0352 48.1031 38.8164 46.2379 40.0781C46.2379 40.0781 42.7315 42.8242 40.2695 46.0156C39.4488 47.4258 38.4789 48.5391 37.5091 48.9844ZM45.9395 28.9453C44.7458 28.9453 43.2537 29.4648 42.2838 31.8398V38C42.2838 38.8164 42.2092 39.7812 42.06 40.5977C43.7013 38.9648 45.6411 37.8516 45.6411 37.8516C46.8348 37.0352 49.2221 35.4766 49.2221 32.4336C49.2967 30.2812 47.2824 28.9453 45.9395 28.9453ZM15.2766 29.8359H13.1877V32.8789H15.2766V29.8359ZM15.2766 34.6602H13.1877V39.6328C13.1877 39.6328 13.7845 46.3125 18.037 48.3164C15.4258 45.2734 15.2766 41.7852 15.2766 39.6328V34.6602Z" fill="white"/>
</svg>
