<svg width="52" height="57" viewBox="0 0 52 57" fill="none" xmlns="http://www.w3.org/2000/svg">
<g clip-path="url(#clip0_118_35)">
<path d="M29.6184 25.5312C29.3946 20.5586 29.0961 17.8867 26.1119 14.6211C22.307 10.3906 20.8895 6.30859 24.023 0C24.8436 4.23047 25.142 8.01562 28.1263 10.3164C31.1105 12.6172 33.5725 18.8516 29.6184 25.5312ZM24.023 25.5312C23.8738 22.8594 23.7245 21.5234 22.0832 19.668C20.0689 17.4414 19.2482 15.2891 20.9641 11.875C21.4118 14.1758 21.4864 16.1797 23.1277 17.3672C24.769 18.5547 26.1865 21.9688 24.023 25.5312ZM37.5266 48.9844H51.1048C51.9254 48.9844 52.2238 49.5781 51.7016 50.2461C51.7016 50.2461 46.4046 57 39.0933 57H12.9067L0.298421 50.2461C-0.223818 49.5781 -1.29445e-06 48.9844 0.820659 48.9844H14.2496C12.3845 48.0195 9.62411 43.7891 9.62411 38.5195V27.3867H42.3013V28.2773C43.3458 27.3867 44.6141 26.9414 45.957 26.9414C47.8221 26.9414 51.3286 28.8711 51.3286 32.2109C51.3286 37.0352 48.1205 38.8164 46.2554 40.0781C46.2554 40.0781 42.7489 42.8242 40.287 46.0156C39.4663 47.4258 38.4964 48.5391 37.5266 48.9844ZM45.957 28.9453C44.7633 28.9453 43.2712 29.4648 42.3013 31.8398V38C42.3013 38.8164 42.2267 39.7812 42.0775 40.5977C43.7188 38.9648 45.6586 37.8516 45.6586 37.8516C46.8522 37.0352 49.2396 35.4766 49.2396 32.4336C49.3142 30.2812 47.2999 28.9453 45.957 28.9453ZM15.2941 29.8359H13.2052V32.8789H15.2941V29.8359ZM15.2941 34.6602H13.2052V39.6328C13.2052 39.6328 13.802 46.3125 18.0545 48.3164C15.4433 45.2734 15.2941 41.7852 15.2941 39.6328V34.6602Z" fill="url(#paint0_linear_118_35)"/>
</g>
<defs>
<linearGradient id="paint0_linear_118_35" x1="25.9894" y1="0" x2="25.9894" y2="57" gradientUnits="userSpaceOnUse">
<stop offset="0.350962" stop-color="#B46B15"/>
<stop offset="0.754808" stop-color="#4E2F09"/>
</linearGradient>
<clipPath id="clip0_118_35">
<rect width="52" height="57" fill="white"/>
</clipPath>
</defs>
</svg>
